<?xml version="1.0" encoding="utf-8"?>
<!-- Generator: Adobe Illustrator 24.0.1, SVG Export Plug-In . SVG Version: 6.00 Build 0)  -->
<svg version="1.1" id="Layer_1" xmlns="http://www.w3.org/2000/svg" xmlns:xlink="http://www.w3.org/1999/xlink" x="0px" y="0px"
	 viewBox="0 0 480 600" style="enable-background:new 0 0 480 600;" xml:space="preserve">
<path d="M239.5,44C137.3,44,54.1,127.2,54.1,229.4c0,126.9,165.9,313.2,173,321c6.6,7.4,18.2,7.4,24.8,0c7.1-7.9,173-194.1,173-321
	C424.9,127.2,341.7,44,239.5,44z M282.5,321.1c-9.7,8.3-20.7,17.6-32.1,27.6c-3,2.6-6.9,4.1-10.9,4.1c-4,0-7.9-1.5-10.9-4.1
	c-11.4-10-22.4-19.4-32.1-27.6c-28.4-24.2-52.9-45.1-70-65.7c-19.1-23-28-44.9-28-68.7c0-23.2,7.9-44.5,22.4-60.2
	c14.6-15.8,34.6-24.6,56.4-24.6c16.3,0,31.2,5.1,44.3,15.3c6.6,5.1,12.6,11.4,17.9,18.7c5.3-7.3,11.3-13.6,17.9-18.7
	c13.1-10.1,28-15.3,44.3-15.3c21.8,0,41.8,8.7,56.4,24.6c14.4,15.6,22.4,37,22.4,60.2c0,23.9-8.9,45.7-28,68.7
	C335.5,276,310.9,296.9,282.5,321.1z"/>
</svg>
